<svg width="542" height="452" viewBox="0 0 542 452" fill="none" xmlns="http://www.w3.org/2000/svg">
<path d="M101.192 402.258C201.972 467.918 365.431 467.918 466.211 402.258C566.99 336.598 566.99 230.155 466.211 164.509C365.431 98.8617 201.972 98.8481 101.192 164.509C0.412703 230.169 0.375834 336.611 101.192 402.258Z" fill="#FAFAFA"/>
<path d="M495.289 159.696C495.842 152.077 501.164 139.088 509.042 129.869C516.92 120.65 529.53 116.148 537.309 119.877C544.56 123.361 542.963 134.072 533.401 140.403C523.839 146.735 509.607 154.517 504.728 166.516L495.289 180.914V159.696Z" fill="#02897A"/>
<path opacity="0.2" d="M495.289 159.696C495.842 152.077 501.164 139.088 509.042 129.869C516.92 120.65 529.53 116.148 537.309 119.877C544.56 123.361 542.963 134.072 533.401 140.403C523.839 146.735 509.607 154.517 504.728 166.516L495.289 180.914V159.696Z" fill="black"/>
<path d="M534.298 123.402C525.265 125.3 498.792 144.105 495.326 172.495" stroke="white" stroke-miterlimit="10" stroke-linecap="round"/>
<path d="M496.358 193.903C497.747 189.836 503.794 182.284 512.495 178.583C521.196 174.881 527.759 171.573 530.93 165.608C534.101 159.642 528.583 153.785 519.795 154.206C511.008 154.626 496.37 164.781 495.338 180.915L496.358 193.903Z" fill="#02897A"/>
<path d="M524.269 159.032C516.674 159.859 498.214 172.21 495.731 186.039" stroke="white" stroke-miterlimit="10" stroke-linecap="round"/>
<path d="M42.3957 232.624C42.0202 221.852 39.8496 211.25 35.9926 201.346C29.5156 184.412 16.4143 175.45 9.43347 174.23C2.45265 173.01 -4.76169 182.365 4.12411 193.482C13.0099 204.6 30.0441 219.486 34.9356 242.006L42.9365 257.38L42.3957 232.624Z" fill="#02897A"/>
<path opacity="0.2" d="M42.3957 232.624C42.0202 221.852 39.8496 211.25 35.9926 201.346C29.5156 184.412 16.4143 175.45 9.43347 174.23C2.45265 173.01 -4.76169 182.365 4.12411 193.482C13.0099 204.6 30.0441 219.486 34.9356 242.006L42.9365 257.38L42.3957 232.624Z" fill="black"/>
<path d="M9.43359 179.396C23.7639 188.805 40.368 213.493 42.6908 246.303" stroke="white" stroke-linecap="round" stroke-linejoin="round"/>
<path d="M41.3022 273.147C39.3234 264.403 34.1493 255.875 23.8132 247.306C13.4772 238.738 -0.336988 231.376 0.793709 222.631C1.92441 213.886 12.3956 214.496 20.0647 218.36C27.7338 222.224 41.0318 238.128 42.9367 257.353L41.3022 273.147Z" fill="#02897A"/>
<path d="M8.04492 219.893C18 222.605 39.3603 244.161 42.4574 262.519" stroke="white" stroke-linecap="round" stroke-linejoin="round"/>
<path d="M44.1285 278.543C43.3027 277.95 42.6161 277.149 42.1248 276.206C41.6335 275.264 41.3514 274.206 41.3018 273.12V77.4135C41.3534 76.3281 41.6362 75.2714 42.1274 74.3291C42.6185 73.3869 43.3041 72.5856 44.1285 71.9904L107.509 31.6288C108.328 31.0645 109.272 30.7569 110.238 30.739C111.204 30.7212 112.156 30.9937 112.992 31.5274C113.828 32.061 114.517 32.8357 114.984 33.7684C115.452 34.701 115.68 35.7564 115.645 36.8214V49.8911C115.645 51.8841 116.874 52.6976 118.484 51.6943L197.793 1.19156C198.611 0.627984 199.553 0.320549 200.518 0.302147C201.483 0.283745 202.434 0.555067 203.27 1.08708C204.106 1.6191 204.795 2.39179 205.263 3.32247C205.731 4.25314 205.961 5.30678 205.929 6.37063V307.191L147.477 344.394L44.1285 278.543Z" fill="#263238"/>
<path d="M203.274 1.09674C202.417 0.636119 201.474 0.405803 200.521 0.424655C199.569 0.443507 198.633 0.710994 197.792 1.20521L118.484 51.708C116.911 52.7113 115.645 51.8978 115.645 49.9048V36.8351C115.68 35.7701 115.451 34.7147 114.984 33.782C114.517 32.8494 113.828 32.0747 112.992 31.541C112.156 31.0073 111.203 30.7348 110.237 30.7527C109.272 30.7706 108.328 31.0781 107.509 31.6424L44.1283 72.004C43.2954 72.5857 42.6069 73.3872 42.125 74.3359L78.4794 97.4927L205.929 16.295V6.38428C205.894 5.33485 205.635 4.30923 205.174 3.39058C204.713 2.47192 204.062 1.68608 203.274 1.09674Z" fill="#455A64"/>
<path d="M203.102 4.58106L118.484 58.4733C116.911 59.4766 115.645 58.6631 115.645 56.6701V36.835C115.645 34.8421 114.416 34.0286 112.819 35.0319L49.4381 75.3934C48.613 75.9878 47.9269 76.7889 47.4356 77.7313C46.9444 78.6737 46.662 79.7309 46.6113 80.8165V269.826C46.6614 270.913 46.9449 271.972 47.4385 272.915C47.9321 273.857 48.6216 274.657 49.4504 275.249L152.823 341.085L205.929 307.272V6.38425C205.929 4.39126 204.663 3.59135 203.102 4.58106Z" fill="#37474F"/>
<path d="M47.4468 272.836C47.9212 273.79 48.6113 274.594 49.4501 275.168L152.823 341.004L205.929 307.191V171.898L47.4468 272.836Z" fill="#263238"/>
<path d="M60.278 315.922L59.5037 315.434C58.8435 314.961 58.2936 314.322 57.8986 313.571C57.5036 312.82 57.2745 311.976 57.23 311.109V127.469C57.2716 126.601 57.4994 125.756 57.8947 125.004C58.29 124.252 58.8414 123.615 59.5037 123.144L230.214 14.4103C230.917 14.0162 231.694 13.8108 232.482 13.8108C233.27 13.8108 234.047 14.0162 234.749 14.4103L235.524 14.912C236.186 15.3829 236.737 16.0205 237.133 16.7724C237.528 17.5243 237.756 18.3689 237.797 19.2369V202.837C237.753 203.704 237.524 204.547 237.129 205.299C236.734 206.05 236.184 206.688 235.524 207.161L64.813 315.922C64.1105 316.316 63.3336 316.522 62.5455 316.522C61.7574 316.522 60.9804 316.316 60.278 315.922Z" fill="#F5F5F5"/>
<path d="M67.8487 131.306L57.8937 124.961C57.4877 125.709 57.2595 126.557 57.23 127.428V311.069C57.2745 311.936 57.5036 312.779 57.8986 313.531C58.2936 314.282 58.8435 314.92 59.5037 315.394L60.278 315.882C60.9804 316.276 61.7574 316.481 62.5455 316.481C63.3336 316.481 64.1105 316.276 64.813 315.882L67.8487 313.943V131.306Z" fill="#E0E0E0"/>
<path d="M62.5513 314.444V130.804C62.5935 129.938 62.8203 129.095 63.2132 128.343C63.6061 127.592 64.1541 126.953 64.8127 126.479L235.523 17.7456C236.752 16.9593 237.797 17.5965 237.797 19.1963V202.837C237.752 203.704 237.523 204.547 237.128 205.299C236.733 206.05 236.183 206.688 235.523 207.162L64.8127 315.922C63.5591 316.681 62.5513 316.044 62.5513 314.444Z" fill="#EBEBEB"/>
<path d="M75.9967 132.892L224.339 38.4212C225.9 37.418 227.166 38.2314 227.166 40.2244V181.822C227.116 182.908 226.834 183.965 226.343 184.908C225.852 185.851 225.165 186.651 224.339 187.245L75.9967 281.702C74.4358 282.706 73.1699 281.892 73.1699 279.899V138.315C73.2215 137.23 73.5044 136.173 73.9955 135.231C74.4867 134.288 75.1723 133.487 75.9967 132.892Z" fill="white"/>
<path d="M100.516 125.828C109.758 119.944 117.243 124.717 117.243 136.485C117.243 148.253 109.758 162.556 100.516 168.441C91.2738 174.325 83.7891 169.566 83.7891 157.798C83.7891 146.03 91.2738 131.712 100.516 125.828Z" fill="#FFB900"/>
<path d="M116.014 168.508C116.581 167.342 117.39 166.34 118.376 165.584C119.361 164.829 120.495 164.341 121.684 164.162C122.873 163.982 124.083 164.115 125.217 164.55C126.35 164.985 127.374 165.709 128.205 166.664L147.476 188.804L184.101 89.6833C184.639 88.2299 185.535 86.9719 186.688 86.0523C187.841 85.1328 189.205 84.5884 190.625 84.4811C192.044 84.3737 193.463 84.7078 194.719 85.4452C195.975 86.1827 197.019 87.294 197.731 88.6529L227.141 144.836V181.822C227.092 182.908 226.81 183.965 226.318 184.908C225.827 185.851 225.14 186.652 224.315 187.245L75.9967 281.702C74.4358 282.706 73.1699 281.892 73.1699 279.899V256.444L116.014 168.508Z" fill="#FFB900"/>
<path d="M92.171 336.259L91.3844 335.758C90.7259 335.283 90.1779 334.645 89.785 333.893C89.3921 333.142 89.1653 332.299 89.123 331.433V147.724C89.1653 146.858 89.3921 146.015 89.785 145.264C90.1779 144.512 90.7259 143.874 91.3844 143.4L262.107 34.6796C262.806 34.2802 263.582 34.0718 264.369 34.0718C265.156 34.0718 265.931 34.2802 266.63 34.6796L267.417 35.1677C268.075 35.6417 268.623 36.2804 269.016 37.0319C269.409 37.7833 269.636 38.6264 269.678 39.4926V223.133C269.643 224.001 269.419 224.847 269.025 225.6C268.632 226.352 268.08 226.99 267.417 227.458L96.6692 336.259C95.9735 336.654 95.2025 336.86 94.4201 336.86C93.6378 336.86 92.8667 336.654 92.171 336.259V336.259Z" fill="#F5F5F5"/>
<path d="M99.7169 151.616L89.7618 145.271C89.3574 146.014 89.1291 146.858 89.0981 147.724V331.365C89.1404 332.231 89.3671 333.074 89.7601 333.826C90.153 334.577 90.701 335.216 91.3595 335.69L92.1461 336.191C92.8449 336.591 93.6205 336.799 94.4075 336.799C95.1945 336.799 95.9701 336.591 96.6689 336.191L99.7169 334.253V151.616Z" fill="#E0E0E0"/>
<path d="M94.4077 334.754V151.114C94.4509 150.248 94.6781 149.405 95.0709 148.654C95.4637 147.903 96.0112 147.264 96.6691 146.789L267.392 38.0554C268.621 37.2555 269.653 37.9062 269.653 39.4925V223.133C269.618 224.001 269.394 224.847 269.001 225.599C268.607 226.352 268.055 226.989 267.392 227.458L96.6691 336.259C95.4278 336.991 94.4077 336.34 94.4077 334.754Z" fill="#EBEBEB"/>
<path d="M107.865 153.229L256.208 58.7449C257.769 57.7552 259.035 58.5686 259.035 60.5481V202.119C258.984 203.204 258.702 204.261 258.21 205.204C257.719 206.146 257.033 206.947 256.208 207.542L107.865 302.026C106.292 303.016 105.026 302.216 105.026 300.223V158.652C105.077 157.565 105.361 156.507 105.855 155.564C106.348 154.621 107.037 153.821 107.865 153.229Z" fill="white"/>
<path d="M132.384 146.138C141.614 140.254 149.111 145.026 149.111 156.794C149.111 168.562 141.614 182.866 132.384 188.75C123.154 194.634 115.657 189.862 115.657 178.093C115.657 166.325 123.142 152.022 132.384 146.138Z" fill="#11B5E4"/>
<path d="M147.882 188.818C148.448 187.652 149.257 186.65 150.241 185.894C151.225 185.139 152.358 184.651 153.546 184.471C154.734 184.291 155.944 184.425 157.077 184.86C158.209 185.295 159.232 186.019 160.062 186.974L179.431 209.114L216.044 109.993C216.58 108.536 217.476 107.275 218.631 106.353C219.785 105.431 221.151 104.885 222.573 104.777C223.995 104.67 225.416 105.005 226.673 105.745C227.931 106.485 228.975 107.6 229.686 108.963L259.084 165.146V202.118C259.033 203.204 258.751 204.261 258.26 205.204C257.768 206.146 257.082 206.947 256.257 207.542L107.915 302.026C106.342 303.016 105.076 302.216 105.076 300.223V276.768L147.882 188.818Z" fill="#11B5E4"/>
<path d="M124.002 356.473L123.228 355.985C122.57 355.511 122.022 354.872 121.629 354.121C121.236 353.369 121.009 352.526 120.967 351.66V168.02C121.008 167.152 121.236 166.307 121.632 165.555C122.027 164.803 122.578 164.166 123.24 163.695L293.951 54.9611C294.654 54.567 295.431 54.3616 296.219 54.3616C297.007 54.3616 297.784 54.567 298.486 54.9611L299.26 55.4627C299.923 55.9337 300.474 56.5713 300.869 57.3232C301.265 58.0751 301.493 58.9197 301.534 59.7877V243.428C301.49 244.295 301.261 245.139 300.866 245.89C300.471 246.641 299.921 247.28 299.26 247.753L128.55 356.473C127.846 356.869 127.067 357.076 126.276 357.076C125.486 357.076 124.707 356.869 124.002 356.473Z" fill="#F5F5F5"/>
<path d="M131.585 171.898L121.667 165.553C121.261 166.301 121.033 167.15 121.003 168.021V351.661C121.046 352.527 121.272 353.37 121.665 354.122C122.058 354.873 122.606 355.512 123.265 355.986L124.039 356.474C124.742 356.868 125.519 357.074 126.307 357.074C127.095 357.074 127.872 356.868 128.574 356.474L131.622 354.535L131.585 171.898Z" fill="#E0E0E0"/>
<path d="M126.276 355.037V171.396C126.318 170.53 126.545 169.687 126.938 168.936C127.331 168.184 127.879 167.546 128.537 167.072L299.248 58.3245C300.477 57.5381 301.522 58.1754 301.522 59.7752V243.429C301.477 244.296 301.248 245.14 300.853 245.891C300.458 246.642 299.908 247.281 299.248 247.754L128.537 356.474C127.284 357.274 126.276 356.596 126.276 355.037Z" fill="#EBEBEB"/>
<path d="M139.721 173.471L288.064 79.0001C289.625 77.9968 290.891 78.8103 290.891 80.8033V222.374C290.84 223.459 290.557 224.517 290.066 225.459C289.575 226.401 288.889 227.202 288.064 227.797L139.721 322.295C138.16 323.298 136.895 322.484 136.895 320.491V178.88C136.948 177.797 137.232 176.743 137.723 175.804C138.214 174.864 138.898 174.065 139.721 173.471V173.471Z" fill="white"/>
<path d="M164.24 166.42C173.483 160.536 180.967 165.309 180.967 177.077C180.967 188.845 173.483 203.149 164.24 209.033C154.998 214.917 147.477 210.171 147.477 198.39C147.477 186.608 154.998 172.305 164.24 166.42Z" fill="#F03E3D"/>
<path d="M179.738 209.1C180.305 207.934 181.115 206.932 182.1 206.176C183.086 205.421 184.219 204.933 185.408 204.754C186.597 204.574 187.808 204.707 188.941 205.142C190.075 205.577 191.099 206.301 191.93 207.256L211.238 229.396L247.863 130.275C248.4 128.822 249.296 127.564 250.45 126.644C251.603 125.725 252.967 125.18 254.386 125.073C255.806 124.966 257.224 125.3 258.481 126.037C259.737 126.775 260.78 127.886 261.492 129.245L290.903 185.428V222.373C290.848 223.46 290.562 224.516 290.069 225.458C289.576 226.4 288.889 227.201 288.064 227.797L139.721 322.294C138.16 323.298 136.895 322.484 136.895 320.491V297.036L179.738 209.1Z" fill="#F03E3D"/>
<path d="M152.823 341.004L168.751 330.863V351.159L152.823 341.004Z" fill="#263238"/>
<path d="M168.751 199.176V347.553C168.751 349.546 167.522 350.346 165.924 349.356L152.823 341.004L147.477 344.394L171.197 359.497C172.074 359.992 173.044 360.25 174.029 360.25C175.015 360.25 175.985 359.992 176.862 359.497L341.17 254.912C341.997 254.319 342.684 253.518 343.178 252.576C343.671 251.633 343.956 250.576 344.009 249.489V94.3339C344.041 93.2685 343.81 92.2135 343.341 91.2815C342.872 90.3496 342.183 89.5757 341.346 89.0425C340.509 88.5093 339.557 88.2368 338.591 88.2542C337.625 88.2716 336.681 88.5782 335.86 89.1412L171.59 193.767C170.763 194.357 170.075 195.156 169.582 196.096C169.089 197.036 168.804 198.091 168.751 199.176Z" fill="#263238"/>
<path d="M179.431 202.335L344.12 97.4928V94.3339C344.152 93.2685 343.921 92.2135 343.452 91.2815C342.983 90.3496 342.294 89.5757 341.457 89.0425C340.62 88.5093 339.668 88.2368 338.702 88.2542C337.736 88.2716 336.792 88.5782 335.971 89.1412L171.59 193.767C170.751 194.341 170.061 195.144 169.587 196.099L179.431 202.335Z" fill="#455A64"/>
<path d="M341.17 92.5301L176.9 197.156C176.073 197.749 175.385 198.55 174.892 199.492C174.398 200.435 174.114 201.492 174.061 202.579V357.693C174.061 359.686 175.29 360.5 176.9 359.497L341.17 254.912C341.997 254.318 342.685 253.518 343.178 252.575C343.671 251.633 343.956 250.575 344.009 249.489V94.3333C344.009 92.3403 342.731 91.5269 341.17 92.5301Z" fill="#37474F"/>
<path d="M217.801 293.24C217.486 293.245 217.176 293.156 216.904 292.983C216.576 292.745 216.314 292.414 216.143 292.025C215.972 291.636 215.899 291.203 215.933 290.773V215.364C215.976 214.38 216.232 213.421 216.679 212.567C217.125 211.714 217.75 210.99 218.501 210.456L298.953 159.222C299.264 158.951 299.642 158.789 300.037 158.758C300.433 158.727 300.827 158.827 301.171 159.046C301.514 159.265 301.789 159.593 301.961 159.987C302.133 160.381 302.194 160.823 302.136 161.255V236.664C302.093 237.648 301.837 238.607 301.39 239.461C300.944 240.314 300.319 241.038 299.568 241.572L219.116 292.874C218.714 293.12 218.261 293.246 217.801 293.24V293.24ZM300.268 160.143C300.017 160.156 299.775 160.245 299.568 160.401L219.116 211.622C218.552 212.039 218.082 212.593 217.743 213.242C217.404 213.891 217.206 214.617 217.162 215.364V290.773C217.14 290.964 217.16 291.158 217.223 291.337C217.285 291.517 217.386 291.677 217.518 291.803C217.682 291.869 217.859 291.887 218.031 291.856C218.203 291.826 218.365 291.747 218.501 291.627L298.953 240.392C299.517 239.979 299.988 239.428 300.327 238.781C300.666 238.134 300.864 237.409 300.907 236.664V161.255C300.931 161.064 300.91 160.87 300.848 160.69C300.786 160.51 300.683 160.35 300.551 160.225C300.465 160.17 300.367 160.141 300.268 160.143V160.143Z" fill="#FAFAFA"/>
<path d="M230.767 228.298C230.065 228.306 229.374 228.11 228.764 227.729C228.005 227.154 227.399 226.366 227.01 225.445C226.621 224.525 226.462 223.506 226.551 222.495C226.683 219.891 227.368 217.357 228.55 215.099C229.733 212.84 231.381 210.92 233.36 209.493C234.079 208.849 234.958 208.461 235.882 208.381C236.805 208.302 237.729 208.534 238.53 209.048C239.33 209.562 239.97 210.332 240.364 211.257C240.758 212.182 240.887 213.217 240.734 214.225C240.606 216.83 239.922 219.365 238.739 221.624C237.556 223.883 235.907 225.803 233.926 227.227C232.973 227.875 231.885 228.244 230.767 228.298ZM236.568 209.778C235.648 209.823 234.754 210.132 233.975 210.673C232.182 211.974 230.691 213.722 229.623 215.775C228.556 217.829 227.941 220.131 227.83 222.495C227.667 223.271 227.734 224.084 228.022 224.814C228.31 225.544 228.802 226.153 229.427 226.551C230.052 226.949 230.777 227.114 231.494 227.024C232.21 226.933 232.882 226.591 233.409 226.048C235.202 224.746 236.692 222.998 237.759 220.944C238.827 218.891 239.442 216.589 239.554 214.225C239.639 213.452 239.536 212.668 239.255 211.953C238.974 211.238 238.526 210.619 237.957 210.158C237.535 209.892 237.054 209.761 236.568 209.778Z" fill="#FAFAFA"/>
<path d="M216.547 287.573C216.459 287.552 216.375 287.51 216.302 287.451C216.23 287.411 216.166 287.355 216.114 287.288C216.062 287.22 216.023 287.141 215.999 287.057C215.975 286.972 215.966 286.883 215.974 286.795C215.982 286.706 216.005 286.621 216.043 286.542L239.862 234.955C240.22 234.175 240.74 233.498 241.378 232.979C242.017 232.461 242.757 232.115 243.539 231.97C244.321 231.825 245.123 231.885 245.881 232.144C246.638 232.403 247.33 232.855 247.9 233.464L271.448 258.464C271.505 258.526 271.55 258.6 271.581 258.681C271.612 258.763 271.628 258.85 271.628 258.939C271.628 259.027 271.612 259.115 271.581 259.196C271.55 259.278 271.505 259.351 271.448 259.413C271.39 259.477 271.323 259.527 271.248 259.562C271.173 259.596 271.092 259.614 271.011 259.614C270.93 259.614 270.85 259.596 270.775 259.562C270.7 259.527 270.632 259.477 270.575 259.413L247.027 234.481C246.594 234.023 246.071 233.684 245.499 233.489C244.926 233.294 244.32 233.25 243.729 233.359C243.138 233.468 242.579 233.729 242.095 234.119C241.611 234.509 241.217 235.018 240.943 235.606L217.125 287.207C217.07 287.322 216.986 287.417 216.884 287.482C216.782 287.546 216.665 287.578 216.547 287.573Z" fill="#FAFAFA"/>
<path d="M259.035 246.981C258.954 247 258.87 247 258.789 246.981C258.642 246.909 258.526 246.777 258.466 246.612C258.406 246.447 258.407 246.263 258.469 246.1L276.904 199.081C277.234 198.227 277.757 197.48 278.423 196.912C279.088 196.344 279.875 195.975 280.708 195.839C281.541 195.703 282.391 195.805 283.177 196.135C283.964 196.465 284.661 197.013 285.2 197.725L301.964 220.082C302.017 220.149 302.057 220.227 302.082 220.312C302.107 220.396 302.116 220.485 302.109 220.574C302.102 220.662 302.079 220.748 302.042 220.827C302.004 220.905 301.953 220.975 301.89 221.031C301.778 221.128 301.638 221.18 301.495 221.177C301.352 221.175 301.214 221.119 301.104 221.018L284.34 198.661C283.938 198.123 283.418 197.708 282.829 197.456C282.24 197.203 281.602 197.123 280.976 197.221C280.351 197.319 279.758 197.592 279.256 198.015C278.754 198.439 278.359 198.997 278.109 199.637L259.674 246.642C259.612 246.764 259.517 246.863 259.403 246.923C259.288 246.984 259.16 247.004 259.035 246.981Z" fill="#FAFAFA"/>
<path d="M319.367 126.926C315.569 126.926 313.025 124.418 313.025 120.69L313.357 97.1806C313.357 90.7678 313.357 81.0333 319.846 76.8439C321.187 75.9046 322.733 75.3806 324.32 75.3271C325.908 75.2735 327.479 75.6924 328.87 76.5396C330.26 77.3869 331.418 78.6314 332.222 80.1425C333.026 81.6536 333.446 83.3756 333.439 85.1278C333.439 87.0123 333.378 89.3171 333.28 91.988C333.273 92.2563 333.218 92.5205 333.118 92.7649C333.018 93.0094 332.874 93.2291 332.695 93.4112C332.516 93.5932 332.306 93.7338 332.077 93.8247C331.848 93.9156 331.605 93.9549 331.362 93.9403C331.12 93.9281 330.883 93.8634 330.663 93.7498C330.444 93.6361 330.247 93.4759 330.083 93.2782C329.92 93.0805 329.794 92.8492 329.712 92.5975C329.63 92.3459 329.593 92.0789 329.605 91.8117C329.691 89.2493 329.752 86.9309 329.752 85.1278C329.76 84.0888 329.511 83.0672 329.03 82.1736C328.549 81.28 327.856 80.5485 327.026 80.0584C326.195 79.5682 325.259 79.338 324.319 79.3928C323.378 79.4475 322.469 79.7851 321.69 80.369C317.401 83.0805 317.044 89.8594 317.044 97.1535L316.712 120.69C316.712 122.452 318.15 122.832 319.367 122.832C321.373 122.779 323.281 121.869 324.689 120.293C326.097 118.716 326.895 116.598 326.913 114.385L326.778 105.098C326.778 104.559 326.972 104.042 327.318 103.66C327.664 103.279 328.133 103.065 328.622 103.065C329.111 103.065 329.579 103.279 329.925 103.66C330.271 104.042 330.465 104.559 330.465 105.098L330.6 114.399C330.61 117.701 329.434 120.874 327.328 123.221C325.223 125.569 322.361 126.901 319.367 126.926Z" fill="#BA68C8"/>
<path d="M347.045 271.425L218.822 353.097C218.161 353.571 217.611 354.209 217.216 354.96C216.821 355.712 216.592 356.555 216.548 357.422V358.412C216.591 359.281 216.82 360.127 217.215 360.881C217.61 361.635 218.16 362.275 218.822 362.751L325.808 430.892C326.51 431.286 327.287 431.492 328.075 431.492C328.863 431.492 329.64 431.286 330.343 430.892L458.566 349.22C459.226 348.746 459.776 348.108 460.171 347.357C460.566 346.606 460.795 345.762 460.84 344.895V343.892C460.795 343.024 460.566 342.181 460.171 341.43C459.776 340.678 459.226 340.04 458.566 339.567L351.58 271.425C350.878 271.031 350.101 270.826 349.313 270.826C348.524 270.826 347.748 271.031 347.045 271.425Z" fill="#455A64"/>
<path d="M216.548 357.422V358.412C216.591 359.281 216.82 360.127 217.215 360.881C217.61 361.634 218.16 362.275 218.822 362.75L325.808 430.892C326.504 431.297 327.282 431.502 328.069 431.488V418.798L221.857 351.172L218.822 353.111C218.163 353.583 217.614 354.219 217.219 354.968C216.824 355.716 216.594 356.557 216.548 357.422V357.422Z" fill="#263238"/>
<path d="M218.822 353.097L347.045 271.425C347.747 271.031 348.524 270.825 349.313 270.825C350.101 270.825 350.878 271.031 351.58 271.425L458.566 339.566C458.842 339.665 459.083 339.859 459.254 340.118C459.425 340.377 459.517 340.69 459.517 341.01C459.517 341.331 459.425 341.643 459.254 341.902C459.083 342.162 458.842 342.355 458.566 342.454L330.343 424.126C329.64 424.52 328.863 424.726 328.075 424.726C327.287 424.726 326.51 424.52 325.808 424.126L218.822 355.985C218.545 355.885 218.304 355.692 218.134 355.433C217.963 355.174 217.871 354.861 217.871 354.541C217.871 354.22 217.963 353.908 218.134 353.649C218.304 353.389 218.545 353.196 218.822 353.097Z" fill="#37474F"/>
<path d="M234.738 355.985L317.831 408.86C318.53 409.259 319.306 409.468 320.093 409.468C320.88 409.468 321.655 409.259 322.354 408.86L434.662 337.343C434.938 337.244 435.179 337.05 435.35 336.791C435.52 336.532 435.612 336.219 435.612 335.899C435.612 335.578 435.52 335.266 435.35 335.007C435.179 334.747 434.938 334.554 434.662 334.455L351.568 281.58C350.864 281.192 350.088 280.99 349.3 280.99C348.513 280.99 347.737 281.192 347.033 281.58L234.738 353.097C234.461 353.196 234.22 353.389 234.05 353.649C233.879 353.908 233.787 354.22 233.787 354.541C233.787 354.861 233.879 355.174 234.05 355.433C234.22 355.692 234.461 355.885 234.738 355.985Z" fill="white"/>
<path d="M260.363 344.799C266.225 341.071 275.738 341.071 281.6 344.799C287.462 348.528 287.475 354.588 281.6 358.357C275.725 362.126 266.225 362.086 260.363 358.357C254.5 354.629 254.5 348.541 260.363 344.799Z" fill="#02897A"/>
<path d="M434.674 334.496L410.389 319.026L336.648 311.447C335.751 311.356 334.848 311.519 334.025 311.923C333.202 312.327 332.486 312.957 331.947 313.753C331.408 314.549 331.064 315.484 330.946 316.469C330.829 317.454 330.943 318.456 331.277 319.379L344.01 354.534L303.452 351.985C302.661 351.933 301.87 352.079 301.137 352.413C300.405 352.746 299.751 353.258 299.223 353.911C298.696 354.563 298.309 355.338 298.092 356.179C297.875 357.019 297.834 357.903 297.97 358.764L304.214 400.237L317.881 408.942C318.579 409.341 319.355 409.549 320.142 409.549C320.929 409.549 321.705 409.341 322.403 408.942L434.711 337.424C435.001 337.332 435.255 337.137 435.435 336.869C435.614 336.602 435.709 336.277 435.705 335.944C435.701 335.612 435.598 335.29 435.411 335.028C435.225 334.766 434.966 334.579 434.674 334.496Z" fill="#02897A"/>
<path d="M434.281 236.162V182.039L498.005 141.461V195.57L434.281 236.162Z" fill="#EBEBEB"/>
<path d="M434.281 182.039L354.616 131.306V185.428L434.281 236.162V182.039Z" fill="#E6E6E6"/>
<path d="M434.281 182.039L499.898 140.24L418.34 88.2869L352.735 130.099L434.281 182.039Z" fill="#F0F0F0"/>
<path d="M434.281 182.039V195.569L499.898 153.784V140.24L434.281 182.039Z" fill="#EBEBEB"/>
<path d="M434.281 195.569L498.005 154.991V157.96L434.281 198.552V195.569Z" fill="#E6E6E6"/>
<path d="M352.735 130.099L434.281 182.039V195.569L352.735 143.63V130.099Z" fill="#EBEBEB"/>
<g style="mix-blend-mode:multiply" opacity="0.5">
<path d="M434.281 195.57L354.616 144.837V147.819L434.281 198.553V195.57Z" fill="#E0E0E0"/>
</g>
<path d="M455.26 190.268L477.026 176.399C477.96 175.802 478.722 176.29 478.722 177.483V191.678C478.691 192.33 478.521 192.964 478.227 193.529C477.932 194.094 477.521 194.575 477.026 194.932L455.26 208.815C454.314 209.412 453.564 208.937 453.564 207.744V193.509C453.591 192.858 453.759 192.224 454.054 191.661C454.349 191.097 454.763 190.619 455.26 190.268Z" fill="#E0E0E0"/>
<path d="M456.649 191.882L475.625 179.789C476.252 179.395 476.768 179.721 476.768 180.507V191.191C476.75 191.627 476.636 192.052 476.437 192.43C476.238 192.808 475.96 193.127 475.625 193.36L456.649 205.454C456.022 205.847 455.518 205.454 455.518 204.721V194.038C455.537 193.605 455.649 193.183 455.846 192.808C456.042 192.433 456.318 192.116 456.649 191.882Z" fill="white"/>
<path d="M434.281 175.246V121.124L498.005 80.5317V134.654L434.281 175.246Z" fill="#EBEBEB"/>
<path d="M434.281 121.124L354.616 70.3909V124.514L434.281 175.247V121.124Z" fill="#E6E6E6"/>
<path d="M434.281 121.124L499.898 79.3115L418.34 27.3716L352.735 69.1703L434.281 121.124Z" fill="#F5F5F5"/>
<path d="M434.281 121.124V134.655L499.898 92.8698V79.312L434.281 121.124Z" fill="#EBEBEB"/>
<path d="M434.281 134.655L498.005 94.0627V97.0455L434.281 137.624V134.655Z" fill="#E6E6E6"/>
<path d="M352.735 69.1704L434.281 121.124V134.655L352.735 82.7147V69.1704Z" fill="#EBEBEB"/>
<g style="mix-blend-mode:multiply" opacity="0.5">
<path d="M434.281 134.654L354.616 83.9209V86.8901L434.281 137.623V134.654Z" fill="#E0E0E0"/>
</g>
<path d="M455.26 129.353L477.026 115.484C477.96 114.887 478.722 115.375 478.722 116.568V130.763C478.688 131.414 478.517 132.047 478.223 132.612C477.928 133.177 477.519 133.658 477.026 134.017L455.26 147.873C454.314 148.47 453.564 147.982 453.564 146.789V132.594C453.591 131.943 453.759 131.31 454.054 130.746C454.349 130.182 454.763 129.704 455.26 129.353Z" fill="#E0E0E0"/>
<path d="M456.649 130.953L475.625 118.873C476.252 118.48 476.768 118.792 476.768 119.592V130.18C476.744 130.615 476.628 131.038 476.43 131.414C476.231 131.791 475.955 132.111 475.625 132.35L456.649 144.43C456.022 144.836 455.518 144.511 455.518 143.711V133.068C455.542 132.642 455.657 132.229 455.854 131.861C456.05 131.494 456.323 131.183 456.649 130.953V130.953Z" fill="white"/>
<path d="M494.564 136.837L434.281 175.247L358.057 126.669L356.189 127.889L434.281 177.456L496.445 138.03L494.564 136.837Z" fill="#E0E0E0"/>
</svg>
